<?xml version="1.0" standalone="no"?>
<!DOCTYPE svg PUBLIC "-//W3C//DTD SVG 20010904//EN"
 "http://www.w3.org/TR/2001/REC-SVG-20010904/DTD/svg10.dtd">
<svg version="1.0" xmlns="http://www.w3.org/2000/svg"
 width="694.000000pt" height="694.000000pt" viewBox="0 0 694.000000 694.000000"
 preserveAspectRatio="xMidYMid meet">
<metadata>
Created by potrace 1.14, written by Peter Selinger 2001-2017
</metadata>
<g transform="translate(0.000000,694.000000) scale(0.100000,-0.100000)"
fill="#000000" stroke="none">
<path d="M4090 6882 c-6 -2 -7 -9 -3 -15 4 -7 -1 -6 -10 2 -14 11 -17 11 -17
0 0 -12 -2 -12 -9 -1 -6 11 -11 10 -25 -3 -10 -10 -16 -12 -16 -4 0 9 -3 9
-14 0 -10 -8 -16 -9 -21 -1 -4 7 -12 7 -25 0 -10 -6 -41 -12 -67 -15 -26 -3
-54 -6 -60 -7 -7 -1 -13 -6 -13 -12 0 -6 -5 -4 -10 4 -7 12 -10 12 -10 1 0 -7
-6 -11 -15 -7 -8 3 -14 0 -12 -7 1 -7 -8 -11 -20 -11 -13 1 -20 -2 -18 -7 3
-4 -9 -18 -27 -30 -18 -13 -39 -29 -46 -36 -8 -7 -19 -10 -25 -6 -8 4 -7 1 1
-9 11 -14 10 -17 -7 -23 -11 -3 -20 -12 -18 -18 1 -7 -3 -11 -10 -10 -13 3
-27 -32 -18 -46 3 -5 0 -13 -6 -17 -8 -5 -9 -3 -4 7 5 8 4 11 -1 6 -9 -8 -10
-12 -12 -55 -1 -15 -6 -21 -14 -16 -8 5 -9 0 -5 -15 4 -18 3 -20 -8 -11 -11 9
-13 6 -11 -15 3 -22 1 -23 -12 -13 -13 10 -14 10 -8 1 4 -8 2 -13 -4 -13 -6 0
-8 -5 -4 -11 3 -6 0 -15 -7 -20 -12 -8 -12 -11 1 -19 12 -7 12 -12 2 -22 -16
-16 -16 -31 1 -22 9 6 9 4 1 -7 -6 -8 -11 -23 -11 -34 0 -11 5 -26 11 -34 8
-11 8 -13 -1 -7 -8 4 -13 1 -13 -9 0 -10 5 -13 13 -9 8 5 8 2 -2 -9 -11 -14
-11 -17 0 -17 11 0 11 -2 -1 -10 -11 -7 -11 -10 -2 -10 10 0 10 -5 1 -21 -8
-15 -8 -19 0 -15 15 10 14 -7 -1 -23 -11 -11 -10 -12 1 -6 11 7 13 2 8 -23 -4
-17 -3 -34 2 -36 11 -7 1 -59 -13 -68 -7 -5 -3 -8 9 -8 11 0 15 -4 10 -8 -12
-8 -13 -27 -3 -37 4 -4 3 -16 -3 -26 -7 -13 -6 -19 1 -19 6 0 8 -4 5 -10 -11
-17 -11 -90 0 -90 5 0 3 -5 -5 -10 -8 -5 -10 -10 -5 -10 11 0 12 -50 1 -68 -4
-8 0 -12 11 -13 16 0 16 -1 -2 -9 -13 -6 -15 -9 -5 -9 13 -1 13 -2 0 -11 -11
-7 -11 -10 -2 -10 7 0 11 -4 8 -9 -4 -5 -7 -27 -8 -50 -1 -26 -5 -38 -12 -34
-6 4 -4 -2 4 -12 9 -12 10 -16 2 -11 -9 6 -11 1 -8 -18 3 -16 0 -26 -7 -26 -7
0 -6 -4 3 -10 12 -8 12 -10 1 -10 -10 0 -11 -3 -3 -13 6 -7 7 -18 2 -26 -4 -8
-6 -20 -3 -28 3 -7 0 -20 -7 -28 -8 -10 -9 -15 -2 -15 6 0 9 -7 6 -15 -4 -8
-11 -12 -17 -8 -6 4 -7 1 -2 -8 13 -19 14 -49 2 -49 -5 0 -4 -7 3 -15 9 -10 9
-15 1 -15 -6 0 -11 -5 -11 -11 0 -5 6 -7 13 -4 6 4 3 -1 -7 -9 -11 -9 -14 -16
-8 -16 7 0 12 -7 12 -15 0 -8 -6 -15 -12 -15 -9 0 -8 -3 1 -9 10 -7 14 -24 13
-51 -2 -27 1 -39 8 -35 5 3 10 1 10 -4 0 -6 -4 -11 -10 -11 -5 0 -10 -7 -10
-15 0 -8 6 -15 13 -15 8 0 7 -4 -3 -10 -11 -7 -12 -12 -4 -17 7 -5 12 -29 11
-55 0 -26 6 -55 14 -64 9 -12 10 -15 2 -10 -9 5 -13 0 -13 -14 0 -12 4 -18 10
-15 11 7 2 -23 -12 -42 -6 -7 -3 -15 9 -22 10 -6 13 -11 8 -11 -6 0 -11 -13
-11 -30 -1 -20 2 -27 10 -23 6 4 5 -1 -3 -10 -7 -9 -10 -17 -5 -17 5 0 2 -5
-6 -10 -12 -8 -12 -10 5 -10 14 0 16 -3 7 -8 -7 -5 -10 -16 -6 -25 4 -11 1
-17 -7 -17 -11 0 -11 -3 1 -10 8 -5 11 -10 6 -10 -5 0 -3 -6 3 -14 8 -9 9 -16
2 -21 -6 -3 -10 -21 -9 -39 1 -18 -2 -38 -6 -44 -5 -8 -1 -10 11 -5 16 6 16 5
4 -10 -11 -14 -11 -20 0 -34 8 -9 9 -14 2 -10 -7 5 -11 -4 -10 -28 1 -19 5
-35 10 -35 5 0 5 -6 -2 -13 -8 -10 -7 -17 1 -25 7 -7 9 -12 5 -12 -3 0 -2 -11
3 -25 5 -14 6 -25 1 -25 -10 0 -1 -59 10 -66 5 -3 5 -14 -1 -25 -6 -10 -7 -19
-2 -19 10 0 9 -30 -2 -48 -4 -6 -3 -12 2 -12 11 0 9 -30 -3 -49 -5 -10 -4 -12
3 -7 15 9 15 1 1 -26 -8 -15 -8 -19 0 -14 6 4 11 3 11 -3 0 -5 -6 -12 -12 -15
-10 -5 -10 -7 -1 -12 10 -4 10 -11 2 -26 -8 -16 -8 -19 1 -13 9 6 9 3 1 -13
-14 -27 -14 -35 2 -26 9 5 9 4 0 -6 -6 -7 -9 -19 -6 -26 3 -8 -1 -14 -7 -14
-9 0 -6 -8 6 -22 10 -12 14 -18 8 -15 -7 4 -14 0 -18 -8 -3 -8 -1 -15 3 -15 5
0 7 -8 5 -17 -8 -38 -10 -162 -2 -157 4 3 5 -2 2 -10 -3 -9 -11 -13 -18 -10
-6 4 -4 -1 5 -10 12 -13 15 -26 9 -51 -5 -21 -3 -38 3 -44 7 -7 7 -11 1 -11
-11 0 -10 -52 1 -71 6 -8 4 -10 -4 -4 -10 6 -11 3 -2 -14 7 -13 8 -21 2 -21
-6 0 -8 -6 -6 -12 2 -7 6 -52 8 -100 3 -61 0 -85 -7 -81 -6 4 -3 -3 7 -14 14
-16 15 -23 6 -29 -8 -5 -10 -3 -4 6 5 8 4 11 -3 7 -11 -7 -5 -44 10 -63 5 -7
2 -16 -7 -24 -12 -10 -13 -16 -4 -26 6 -8 8 -14 3 -14 -5 0 -2 -5 6 -10 9 -6
10 -10 3 -10 -14 0 -13 -116 1 -139 6 -10 6 -12 -3 -7 -9 6 -12 -7 -9 -53 2
-38 0 -61 -7 -61 -6 0 -7 -3 0 -8 14 -10 15 -55 1 -64 -8 -5 -7 -8 2 -8 9 0
10 -5 2 -19 -8 -16 -6 -20 8 -24 16 -4 16 -5 -1 -6 -10 0 -16 -5 -12 -10 10
-17 13 -71 4 -77 -5 -3 -4 -15 2 -26 8 -15 8 -22 -1 -28 -9 -6 -9 -9 1 -13 10
-4 10 -6 2 -6 -9 -1 -10 -8 -5 -24 4 -12 8 -39 7 -60 0 -20 3 -37 7 -37 5 0 8
-5 8 -11 0 -5 -4 -8 -8 -5 -5 3 -9 -1 -9 -9 0 -8 4 -12 7 -10 4 3 8 -6 8 -20
0 -14 -4 -23 -8 -20 -3 2 -7 -2 -7 -10 0 -8 3 -12 7 -10 4 2 6 -19 6 -48 -1
-29 1 -76 4 -104 4 -32 2 -55 -4 -58 -7 -3 -7 -7 1 -11 10 -4 9 -10 -3 -22
-11 -11 -13 -17 -5 -20 6 -2 11 -8 11 -13 0 -6 -4 -7 -10 -4 -6 3 -7 -1 -4 -9
4 -9 1 -16 -6 -16 -10 0 -10 -3 0 -15 9 -11 9 -15 1 -15 -7 0 -9 -5 -6 -10 4
-6 1 -18 -7 -27 -11 -14 -11 -16 1 -8 11 6 13 4 8 -9 -6 -14 -3 -17 8 -12 13
4 14 2 5 -14 -9 -16 -7 -22 5 -27 13 -5 14 -7 3 -14 -9 -6 -9 -9 -1 -9 8 0 9
-9 3 -31 -5 -17 -9 -34 -8 -38 2 -21 -4 -31 -14 -25 -10 5 -10 4 -1 -6 10 -11
9 -16 -4 -25 -13 -10 -13 -14 -3 -20 9 -6 11 -4 5 5 -5 8 -4 11 1 7 6 -3 9
-26 9 -52 -1 -25 2 -48 7 -51 4 -3 8 -11 8 -17 0 -7 -4 -6 -10 3 -14 23 -23 4
-9 -22 11 -21 11 -22 -5 -9 -15 12 -17 12 -14 0 2 -8 8 -17 13 -22 6 -4 3 -13
-9 -22 -14 -11 -16 -15 -5 -15 12 0 12 -2 -1 -10 -12 -8 -12 -10 5 -11 l20 0
-20 -9 c-11 -5 -14 -9 -7 -9 7 -1 10 -6 7 -11 -4 -6 -10 -8 -14 -6 -4 3 -8 -1
-8 -9 0 -8 5 -11 10 -8 6 3 8 -9 5 -31 -2 -20 -1 -36 3 -36 3 0 4 -12 1 -26
-3 -18 -1 -25 6 -20 6 3 9 -1 7 -11 -2 -10 -4 -22 -4 -26 -1 -5 -7 -5 -13 -2
-7 4 -4 -1 6 -9 11 -9 15 -16 10 -16 -5 0 -10 -9 -11 -20 -1 -13 2 -18 9 -14
7 5 8 2 2 -7 -11 -19 -15 -69 -4 -69 10 0 8 -20 -4 -38 -5 -8 -1 -21 11 -34
12 -15 13 -19 3 -14 -8 4 -6 0 4 -8 11 -9 15 -16 9 -16 -6 0 -13 -7 -16 -14
-4 -11 -1 -13 11 -9 15 6 15 5 3 -10 -8 -10 -10 -24 -6 -34 11 -25 13 -53 4
-47 -4 2 -7 -5 -6 -16 1 -11 5 -20 10 -20 5 0 4 -7 -3 -15 -9 -11 -9 -15 -1
-15 8 0 9 -5 1 -19 -12 -24 -13 -34 -2 -27 5 3 8 -17 8 -45 0 -27 -5 -49 -11
-49 -7 0 -7 -3 0 -8 13 -9 18 -35 5 -27 -5 3 -10 0 -10 -9 0 -8 6 -17 13 -19
9 -4 9 -6 -1 -6 -7 -1 -10 -5 -7 -11 3 -5 0 -10 -7 -10 -9 0 -9 -3 2 -10 8 -5
10 -10 4 -10 -7 0 -9 -11 -6 -25 3 -17 0 -25 -9 -25 -11 0 -11 -2 1 -10 13 -9
13 -11 0 -20 -11 -7 -11 -10 -2 -10 8 0 10 -5 6 -12 -10 -15 -13 -49 -5 -44 3
2 12 -2 18 -10 9 -9 9 -15 2 -20 -7 -4 -2 -16 13 -32 13 -14 16 -22 8 -18 -9
5 -8 2 2 -7 10 -8 15 -17 11 -20 -3 -4 -1 -7 5 -7 6 0 13 -8 16 -17 8 -25 61
-83 75 -83 6 0 11 -5 11 -10 0 -6 11 -15 25 -22 13 -6 23 -14 20 -17 -2 -4 6
-13 18 -21 21 -12 21 -12 7 5 -14 18 -13 18 11 0 15 -11 25 -23 23 -26 -2 -4
4 -6 14 -5 9 0 16 -5 14 -11 -1 -7 5 -13 14 -13 8 0 13 4 10 8 -3 5 1 9 8 9 8
0 11 -9 8 -26 -5 -26 -5 -26 14 -6 10 11 16 16 12 11 -13 -17 -9 -29 6 -17 10
9 16 9 21 1 4 -6 14 -9 22 -6 8 3 11 1 8 -4 -3 -6 1 -10 10 -10 9 0 13 4 10
10 -3 5 0 7 9 4 9 -3 12 -13 9 -22 -4 -13 -2 -12 10 3 8 11 13 23 11 27 -2 4
1 10 7 14 7 4 9 3 6 -3 -4 -6 0 -16 7 -22 10 -9 16 -9 21 -1 5 8 10 8 20 0 10
-8 14 -7 18 2 2 8 8 9 13 4 5 -5 4 -11 -3 -13 -19 -7 -15 -22 5 -19 9 2 17 8
17 14 0 6 5 16 11 22 8 8 11 6 11 -4 0 -8 -4 -13 -9 -10 -4 3 -5 -2 -2 -11 6
-14 8 -14 21 2 8 10 12 13 9 6 -4 -6 -1 -15 5 -19 8 -5 9 -3 4 6 -6 10 -4 12
10 6 16 -6 16 -4 4 11 -7 10 -9 15 -5 11 5 -4 14 0 21 9 11 14 12 14 11 -3 -1
-10 3 -19 9 -19 5 0 9 9 8 20 -2 11 0 14 3 7 3 -6 11 -9 16 -6 6 4 17 -1 25
-11 8 -12 13 -14 13 -6 0 8 7 11 19 8 16 -4 19 0 16 22 -2 14 -2 20 1 13 3 -6
10 -10 15 -6 5 3 8 1 7 -4 -2 -6 2 -10 7 -10 6 -1 9 5 7 12 -1 9 7 12 23 11
14 -2 23 1 19 6 -3 5 -10 6 -16 3 -7 -4 -8 -2 -4 5 4 6 11 9 16 6 4 -3 10 1
13 7 3 10 8 10 22 -2 17 -14 17 -13 11 10 -6 21 -5 22 4 7 6 -9 16 -15 21 -12
5 4 7 10 4 15 -3 4 5 6 17 2 21 -5 22 -4 8 13 -14 17 -14 18 10 5 24 -13 24
-12 10 5 -14 16 -13 17 8 11 16 -5 22 -4 20 6 -2 7 3 12 10 10 6 -1 12 5 12
13 0 8 5 15 11 15 5 0 7 -6 4 -12 -4 -7 0 -5 8 4 8 10 18 14 22 10 5 -4 5 1 2
11 -4 11 -1 17 9 17 9 0 12 -5 8 -12 -6 -10 -5 -10 8 -1 8 7 19 9 24 5 4 -4 2
2 -6 12 -11 14 -11 18 -2 12 8 -5 19 -1 28 10 9 11 13 13 9 7 -3 -7 -1 -13 4
-13 6 0 11 5 11 11 0 6 7 8 16 5 14 -5 15 -4 4 9 -11 13 -10 14 5 8 14 -5 17
-3 13 9 -5 11 0 14 19 10 20 -4 24 -2 18 8 -6 9 -4 12 7 8 15 -6 44 27 30 35
-4 2 -1 2 6 1 19 -5 43 7 35 19 -3 5 -1 7 5 3 6 -3 13 -2 17 3 3 6 13 7 22 4
12 -5 14 -3 8 8 -8 12 -6 12 8 1 12 -10 21 -11 34 -3 10 6 12 11 6 11 -21 0
-15 16 7 17 13 1 18 -2 14 -9 -4 -6 -2 -8 4 -4 6 3 9 16 7 28 -3 11 -1 18 2
14 4 -3 17 4 30 16 13 12 23 17 23 12 0 -5 -9 -15 -20 -22 -11 -7 -20 -17 -20
-22 0 -6 10 -2 22 9 11 11 26 18 31 14 6 -3 7 -1 3 5 -6 11 5 16 26 13 4 0 5
5 2 13 -6 15 49 60 60 49 4 -4 4 0 0 10 -6 17 -7 17 -21 0 -11 -14 -11 -12 1
13 8 17 12 35 8 39 -4 5 -1 5 6 1 6 -4 12 -2 12 4 0 6 5 8 12 4 7 -4 8 -3 4 5
-4 6 -11 9 -15 7 -4 -3 -8 2 -8 10 0 9 6 13 15 9 12 -4 13 -3 2 10 -11 13 -10
14 3 10 18 -8 32 11 16 21 -8 5 -9 3 -4 -6 5 -9 4 -11 -4 -6 -8 6 -9 12 -2 20
6 7 8 16 4 20 -4 4 1 4 12 0 11 -4 17 -4 13 1 -4 4 0 14 10 22 16 14 16 14 -3
8 -17 -5 -17 -3 5 17 13 13 28 22 33 20 4 -1 2 8 -4 20 -11 21 -11 22 5 9 14
-12 16 -12 10 4 -5 12 -4 16 4 11 6 -3 13 -2 17 4 3 5 1 10 -6 10 -6 0 -1 9
12 20 17 14 20 19 9 20 -12 0 -13 2 -1 9 7 5 14 21 14 35 0 18 4 26 12 22 19
-7 27 5 14 20 -9 11 -6 16 12 23 13 5 19 10 13 10 -6 1 -11 8 -11 16 0 11 4
12 13 4 8 -6 14 -6 18 0 4 5 2 12 -4 16 -15 9 7 45 24 39 7 -3 21 2 30 11 9 9
16 13 16 8 0 -4 4 -3 8 2 4 6 16 17 26 25 18 13 19 13 12 0 -5 -8 2 -3 15 11
13 14 30 24 38 21 8 -3 11 0 7 7 -4 7 0 11 12 11 10 0 31 11 46 25 15 14 29
25 31 25 9 0 45 35 45 43 0 4 9 17 20 29 10 12 17 25 14 30 -3 4 2 8 11 8 9 0
14 4 10 9 -3 5 4 13 16 16 11 4 18 9 15 12 -3 3 4 19 15 34 11 16 18 29 15 29
-3 0 6 11 20 25 14 14 23 29 20 34 -3 5 1 11 9 15 8 3 15 15 15 27 0 15 4 19
16 15 8 -3 12 -2 9 4 -3 6 -1 10 5 10 6 0 8 5 5 10 -3 5 -2 10 4 10 6 0 8 7 5
15 -4 8 -1 15 5 15 6 0 11 9 11 20 0 11 5 20 11 20 6 0 9 6 6 14 -3 7 0 19 6
25 6 6 7 11 1 11 -5 0 -3 4 4 9 8 5 15 20 15 34 1 14 5 23 8 21 4 -2 10 6 14
19 4 12 8 25 10 30 6 18 7 22 6 30 0 4 4 7 11 7 6 0 8 3 5 7 -4 3 1 15 10 26
13 15 14 18 3 12 -12 -7 -13 -6 -3 7 7 8 10 18 6 21 -3 4 -1 7 6 7 7 0 9 5 6
10 -3 6 -2 10 2 10 5 0 10 12 11 27 1 15 5 29 10 32 11 9 32 73 26 82 -3 5 0
9 6 9 6 0 9 4 6 9 -3 5 1 14 9 21 7 6 11 18 8 26 -3 8 0 14 7 14 7 0 10 6 7
14 -3 8 1 17 10 20 8 4 13 12 10 20 -3 8 2 24 10 37 13 17 13 20 2 14 -11 -7
-12 -6 -2 7 7 8 10 18 6 21 -3 4 -2 7 4 7 5 0 9 15 8 34 0 19 3 32 7 30 8 -5
12 26 9 55 -2 7 1 11 6 8 4 -3 9 6 9 19 1 15 -2 22 -10 17 -6 -3 -1 4 12 16
23 22 30 37 12 26 -6 -3 -7 1 -4 9 3 9 11 13 17 9 5 -3 7 -1 3 5 -3 6 -2 13 4
17 6 4 7 13 1 23 -10 20 -3 45 10 37 5 -4 6 1 3 9 -3 9 -13 12 -22 9 -13 -4
-12 -2 3 11 11 10 15 15 9 12 -6 -3 -11 1 -11 9 0 8 5 11 10 8 6 -4 8 0 4 9
-3 9 0 21 6 27 9 9 8 11 -7 5 -16 -6 -17 -5 -7 14 9 17 9 22 -1 22 -8 0 -9 3
-3 8 12 9 13 32 1 51 -6 10 -5 12 2 7 7 -4 12 -3 12 3 0 5 -4 12 -9 15 -9 6
-9 20 2 46 4 8 6 59 4 112 -2 64 1 94 8 90 5 -3 4 2 -4 11 -7 9 -10 17 -6 17
4 0 2 7 -5 15 -10 12 -10 18 1 32 12 14 12 16 0 9 -9 -6 -12 -5 -9 5 3 8 1 26
-3 42 -5 18 -4 27 4 27 6 0 2 7 -9 16 -18 15 -18 15 0 10 15 -5 17 -4 8 7 -7
8 -9 17 -5 20 3 4 1 7 -6 7 -9 0 -9 5 0 21 8 15 8 19 0 15 -9 -6 -17 26 -8 37
1 2 -4 11 -11 20 -9 11 -10 17 -2 22 8 5 8 11 -1 21 -9 11 -8 14 2 14 9 0 10
3 3 8 -12 8 -12 6 -15 112 -2 42 1 81 5 88 4 7 3 12 -2 12 -6 0 -8 9 -5 20 3
12 0 20 -7 20 -10 0 -10 3 0 15 10 12 9 16 -3 21 -9 3 -13 13 -10 25 3 10 0
19 -6 19 -6 0 -11 7 -11 15 0 8 -5 15 -11 15 -5 0 -8 4 -4 9 3 5 -2 16 -10 24
-11 12 -12 17 -2 20 9 3 9 8 -2 18 -12 12 -13 12 -6 0 5 -9 4 -12 -2 -8 -6 4
-8 18 -5 32 3 16 -2 33 -14 47 -11 12 -14 18 -7 15 6 -4 15 -3 18 3 4 6 1 9
-6 8 -7 -2 -21 15 -32 37 -11 22 -23 42 -28 43 -5 2 -9 12 -9 22 0 10 -9 20
-20 23 -11 3 -20 14 -20 25 0 11 -10 27 -22 36 -13 9 -17 14 -10 11 6 -3 12
-1 12 4 0 6 -4 11 -10 11 -5 0 -10 9 -10 21 0 11 -4 18 -9 15 -5 -4 -7 3 -4
14 3 11 10 17 17 13 8 -4 7 -2 -1 7 -6 7 -9 19 -6 28 5 11 3 13 -8 7 -12 -8
-12 -6 0 8 10 13 10 17 1 17 -10 0 -10 4 1 16 10 13 10 17 -1 24 -11 7 -11 11
-1 24 11 12 11 16 1 16 -9 0 -9 4 1 17 10 11 10 14 2 9 -10 -5 -11 -1 -5 16
10 28 9 39 -2 57 -6 10 -5 12 2 7 15 -9 13 43 -2 63 -8 11 -8 13 2 7 10 -6 12
3 9 43 -2 31 1 51 7 51 7 0 6 3 -1 8 -7 4 -10 26 -9 55 2 29 -1 47 -8 47 -6 0
-4 5 4 10 8 5 10 10 3 10 -12 0 -12 17 1 38 4 7 4 12 -1 11 -20 -3 -27 2 -13
11 10 7 11 13 5 18 -6 4 -10 17 -9 30 1 13 -11 36 -26 52 -16 17 -23 30 -17
30 7 0 5 5 -3 10 -13 9 -13 10 0 10 13 0 13 2 1 9 -9 6 -15 28 -16 58 -2 57
-9 76 -49 126 -22 27 -30 47 -28 68 2 16 -1 29 -7 29 -6 0 -11 7 -11 16 0 18
-25 46 -34 37 -3 -4 -6 0 -6 9 0 18 -41 58 -60 58 -7 0 -10 3 -7 7 8 7 -34 39
-45 35 -5 -1 -8 2 -8 6 0 4 -12 9 -27 10 -29 2 -46 20 -35 37 3 5 -1 4 -10 -3
-13 -10 -18 -10 -24 -1 -4 8 -3 9 4 5 7 -4 12 -1 12 7 0 8 -7 18 -16 21 -8 3
-12 2 -9 -3 3 -5 1 -12 -4 -16 -6 -3 -8 3 -6 15 2 11 -4 24 -13 31 -16 10 -16
10 0 5 12 -3 15 -1 11 10 -3 7 -9 14 -14 14 -5 0 -9 5 -9 11 0 5 4 8 9 4 5 -3
13 -1 16 5 4 6 3 10 -2 9 -20 -3 -25 2 -14 15 9 11 9 16 0 22 -8 5 -9 3 -4 -6
5 -8 4 -11 -3 -7 -11 8 -11 25 2 45 5 9 1 15 -13 19 -11 3 -18 10 -15 15 4 6
1 14 -6 18 -7 4 -13 26 -13 48 0 23 -4 39 -9 36 -4 -3 -8 11 -8 30 0 19 -4 38
-10 41 -5 3 -10 15 -10 26 0 11 -4 17 -10 14 -5 -3 -10 1 -10 10 0 9 -4 13
-10 10 -5 -3 -10 3 -10 15 0 12 -4 19 -8 16 -4 -2 -9 4 -10 15 -4 42 -6 48
-13 44 -12 -8 -17 33 -5 45 8 8 7 10 -6 5 -14 -6 -18 -2 -18 14 0 12 -4 21
-10 21 -5 0 -10 7 -10 16 0 8 -4 12 -10 9 -5 -3 -10 3 -10 15 0 12 -4 18 -10
15 -5 -3 -10 1 -10 9 0 9 -5 16 -11 16 -5 0 -7 5 -4 10 4 6 3 10 -2 9 -20 -3
-34 2 -28 11 3 6 -1 10 -10 10 -9 0 -19 9 -22 21 -4 16 -8 17 -14 7 -7 -10 -9
-8 -9 6 0 11 -3 17 -6 13 -7 -7 -23 8 -40 38 -7 11 -19 19 -29 19 -9 -1 -14 0
-11 3 12 12 -42 48 -66 44 -4 0 -4 7 -1 16 5 12 2 15 -9 11 -10 -4 -19 2 -27
18 -6 13 -18 24 -27 24 -10 0 -15 3 -11 6 7 7 -17 34 -29 34 -4 0 -19 10 -32
23 -14 12 -22 15 -18 7 6 -13 6 -13 -6 0 -7 9 -26 25 -42 38 -16 12 -24 22
-19 22 5 0 15 -6 23 -12 12 -11 12 -10 1 5 -7 9 -22 17 -32 17 -11 0 -19 5
-19 10 0 6 -6 10 -14 10 -8 0 -18 9 -21 20 -4 11 -11 18 -16 15 -5 -4 -9 -1
-9 5 0 6 -4 8 -10 5 -5 -3 -10 -1 -10 4 0 6 -6 11 -14 11 -7 0 -19 7 -26 16
-19 22 -55 40 -45 22 3 -7 0 -5 -8 5 -9 11 -18 14 -21 8 -4 -6 -16 -5 -32 4
-15 7 -33 11 -42 8 -11 -5 -13 -3 -7 7 6 10 4 12 -7 7 -9 -3 -21 0 -27 6 -8 8
-11 6 -11 -8 0 -18 -1 -18 -13 -1 -7 9 -28 19 -47 23 -19 3 -38 10 -41 15 -4
7 -9 6 -13 -1 -4 -6 -13 -11 -19 -11 -7 0 -6 4 3 10 12 8 11 10 -7 10 -13 0
-23 6 -23 13 0 8 -4 7 -10 -3 -9 -13 -10 -13 -11 0 0 10 -3 8 -9 -5 -6 -15 -9
-16 -9 -4 -1 11 -11 16 -36 15 -19 -1 -40 -3 -45 -4z m945 -482 c3 -5 1 -10
-4 -10 -6 0 -11 5 -11 10 0 6 2 10 4 10 3 0 8 -4 11 -10z m630 -960 c3 -5 1
-10 -4 -10 -6 0 -11 5 -11 10 0 6 2 10 4 10 3 0 8 -4 11 -10z m205 -465 c0 -5
-5 -3 -10 5 -5 8 -10 20 -10 25 0 6 5 3 10 -5 5 -8 10 -19 10 -25z m-500
-3839 c0 -3 -4 -8 -10 -11 -5 -3 -10 -1 -10 4 0 6 5 11 10 11 6 0 10 -2 10 -4z
m-486 -681 c3 -8 1 -15 -4 -15 -6 0 -10 7 -10 15 0 8 2 15 4 15 2 0 6 -7 10
-15z m-1360 -50 c-4 -8 -11 -12 -16 -9 -6 4 -5 10 3 15 19 12 19 11 13 -6z
m726 -296 c0 -4 -6 -9 -13 -12 -8 -3 -14 0 -14 7 0 7 6 13 14 13 7 0 13 -4 13
-8z"/>
<path d="M2794 6871 c8 -13 -18 -21 -35 -11 -7 5 -18 5 -24 1 -5 -4 -35 -9
-65 -10 -30 -1 -70 -3 -87 -4 -18 -2 -33 1 -33 6 0 4 -5 5 -10 2 -6 -4 -7 -11
-4 -17 5 -7 2 -8 -7 -2 -22 13 -41 14 -36 0 3 -6 -4 -13 -14 -13 -13 -1 -17 2
-12 10 4 7 0 6 -10 -2 -9 -7 -14 -18 -11 -23 4 -6 -2 -8 -15 -3 -15 4 -23 1
-27 -10 -5 -12 -9 -13 -21 -4 -8 7 -13 8 -12 3 1 -5 1 -15 0 -23 -1 -11 -4
-11 -18 0 -12 10 -14 10 -9 1 4 -7 0 -15 -11 -19 -10 -4 -24 -13 -31 -20 -8
-7 -19 -10 -25 -6 -7 3 -9 2 -4 -2 9 -11 -43 -46 -57 -38 -6 3 -8 3 -4 -2 9
-10 -31 -47 -43 -39 -5 3 -6 -3 -2 -12 4 -11 2 -15 -4 -11 -6 4 -13 -3 -16
-15 -5 -19 -8 -20 -23 -7 -16 12 -17 12 -11 -3 4 -12 2 -18 -8 -18 -8 0 -15
-5 -15 -11 0 -5 4 -7 10 -4 6 3 7 -1 3 -10 -5 -13 -8 -14 -15 -3 -7 10 -10 9
-19 -5 -6 -10 -15 -14 -22 -10 -7 4 -7 0 1 -10 12 -14 11 -16 -7 -12 -18 3
-20 1 -11 -14 7 -15 6 -18 -8 -17 -9 0 -16 -5 -15 -11 2 -7 -8 -15 -22 -19
-14 -3 -25 -10 -25 -15 0 -5 -7 -9 -16 -9 -11 0 -14 -5 -10 -16 6 -14 4 -15
-9 -4 -13 11 -16 11 -13 0 2 -8 -2 -14 -9 -15 -6 0 -15 -4 -20 -9 -5 -6 -2 -6
7 -1 10 5 8 1 -4 -13 -21 -25 -30 -28 -21 -9 3 6 -2 2 -11 -10 -9 -13 -20 -23
-25 -23 -12 0 -45 -33 -59 -59 -6 -12 -14 -20 -18 -18 -4 1 -7 -2 -7 -6 0 -5
-8 -13 -18 -18 -9 -6 -15 -14 -12 -20 4 -5 -2 -6 -11 -2 -12 4 -15 3 -10 -5 4
-7 2 -12 -4 -12 -6 0 -8 -4 -5 -10 3 -5 -2 -10 -12 -11 -10 0 -13 -3 -6 -6 10
-3 10 -7 0 -18 -7 -7 -15 -11 -19 -8 -4 2 -5 -2 -2 -10 3 -8 -5 -25 -18 -37
-13 -13 -17 -20 -11 -16 9 5 11 2 7 -8 -3 -9 -10 -13 -15 -10 -5 3 -9 -2 -9
-10 0 -9 -4 -16 -9 -16 -4 0 -8 -8 -8 -17 0 -23 -25 -83 -35 -83 -4 0 -8 -7
-8 -15 0 -8 -5 -15 -11 -15 -5 0 -7 -5 -3 -11 3 -6 3 -14 -2 -18 -19 -14 -33
-48 -22 -59 6 -6 6 -12 -3 -17 -8 -6 -10 -4 -4 5 5 8 4 11 -2 7 -6 -4 -8 -18
-5 -32 2 -14 0 -25 -6 -25 -12 0 -10 -43 3 -52 6 -5 5 -8 -4 -8 -8 0 -11 -7
-8 -20 3 -11 2 -18 -3 -15 -4 2 -10 -9 -14 -26 -6 -32 -27 -59 -46 -59 -6 0
-8 -4 -5 -10 3 -5 -3 -10 -14 -10 -12 0 -21 -3 -21 -8 0 -8 -61 -38 -72 -34
-5 1 -8 -4 -8 -12 0 -8 -9 -18 -20 -21 -11 -4 -18 -11 -15 -16 4 -5 -1 -9 -9
-9 -8 0 -18 -9 -21 -20 -3 -11 -13 -20 -21 -20 -8 0 -13 -3 -12 -7 4 -16 -14
-53 -23 -48 -5 4 -9 1 -9 -6 0 -6 -8 -18 -17 -26 -12 -10 -13 -12 -3 -8 9 4 8
1 -3 -8 -10 -9 -18 -18 -18 -21 3 -20 0 -27 -8 -22 -5 3 -12 -1 -15 -10 -4
-10 -2 -13 7 -8 9 6 9 5 0 -8 -7 -8 -10 -18 -6 -21 3 -4 1 -7 -5 -7 -7 0 -12
-7 -12 -15 0 -8 -4 -15 -10 -15 -5 0 -6 -7 -3 -17 5 -12 3 -14 -7 -8 -10 6
-12 3 -8 -13 4 -13 0 -23 -8 -26 -8 -3 -14 -9 -13 -13 4 -25 -2 -43 -13 -37
-7 5 -9 2 -5 -8 3 -9 -1 -25 -9 -37 -8 -12 -12 -26 -9 -31 3 -6 2 -10 -2 -10
-9 0 -43 -59 -46 -81 -2 -8 -7 -20 -11 -28 -7 -11 -6 -12 5 -6 11 7 11 5 -1
-10 -8 -10 -14 -20 -12 -22 1 -1 2 -4 1 -5 0 -2 -2 -19 -3 -38 -1 -19 -5 -41
-9 -47 -5 -8 -3 -13 5 -13 9 0 10 -3 2 -8 -6 -4 -10 -15 -8 -24 1 -10 -3 -18
-9 -18 -8 0 -8 -3 -2 -8 12 -8 13 -27 3 -38 -4 -4 -3 -13 3 -21 9 -10 8 -13
-2 -13 -11 0 -11 -2 1 -10 8 -5 10 -10 4 -10 -8 0 -9 -11 -4 -35 4 -19 4 -35
-1 -35 -5 0 -4 -12 1 -26 6 -14 8 -29 5 -34 -3 -5 -1 -11 3 -14 11 -7 10 -56
-2 -75 -7 -11 -6 -12 5 -6 11 7 12 6 3 -6 -11 -13 -28 -69 -24 -78 1 -2 -4 -8
-12 -12 -11 -7 -10 -9 1 -9 11 0 10 -4 -5 -16 -10 -8 -12 -12 -4 -8 12 6 13 5
3 -7 -10 -12 -10 -18 0 -28 9 -10 9 -11 -5 -6 -13 5 -15 2 -11 -14 3 -14 0
-23 -11 -27 -9 -3 -16 -10 -16 -15 0 -4 8 -5 17 -2 11 4 7 -4 -10 -19 -19 -18
-24 -28 -16 -33 8 -6 7 -10 -5 -17 -9 -5 -14 -13 -11 -18 3 -4 -2 -11 -11 -14
-8 -3 -12 -10 -9 -16 3 -6 -1 -13 -9 -16 -9 -3 -16 -15 -16 -25 0 -10 -4 -19
-10 -19 -5 0 -10 -7 -10 -16 0 -9 5 -13 13 -9 6 4 5 1 -4 -7 -9 -7 -15 -21
-13 -30 1 -10 -2 -18 -8 -18 -6 0 -8 -11 -6 -25 3 -15 0 -29 -8 -33 -7 -4 -15
-16 -17 -27 -1 -11 -6 -26 -11 -34 -5 -8 -4 -16 4 -21 8 -5 7 -9 -6 -14 -16
-6 -16 -8 0 -25 11 -12 13 -21 7 -25 -6 -4 -7 -14 -4 -23 5 -12 3 -14 -7 -8
-9 6 -11 4 -6 -4 9 -14 14 -111 6 -111 -3 0 -5 -19 -5 -42 1 -24 -2 -50 -6
-59 -5 -9 -3 -21 4 -29 9 -10 9 -14 -1 -17 -10 -4 -10 -8 0 -21 8 -9 8 -13 2
-9 -7 4 -14 0 -17 -8 -4 -10 -1 -12 11 -8 14 5 15 4 6 -8 -6 -8 -9 -26 -7 -41
2 -17 -1 -28 -8 -28 -8 0 -8 -4 1 -15 9 -11 9 -15 1 -15 -8 0 -9 -5 -2 -19 6
-10 7 -22 3 -26 -4 -3 -8 -37 -9 -73 -1 -87 -1 -84 -15 -77 -7 4 -5 0 5 -8 15
-12 16 -19 8 -36 -8 -14 -8 -22 0 -27 8 -4 7 -9 -2 -15 -8 -5 -9 -9 -3 -9 6 0
11 -21 11 -47 2 -131 3 -134 15 -127 10 6 10 4 0 -8 -10 -12 -10 -18 -1 -23 8
-6 7 -10 -2 -16 -10 -6 -11 -11 -3 -16 6 -5 10 -24 10 -43 -1 -19 1 -50 5 -67
4 -21 3 -33 -4 -33 -6 0 -2 -7 9 -16 10 -8 14 -13 7 -10 -7 4 -11 -1 -10 -14
1 -11 5 -20 10 -20 5 0 6 -9 2 -19 -3 -11 -1 -22 4 -25 6 -4 8 -13 4 -21 -3
-9 1 -23 8 -32 10 -12 10 -15 2 -9 -7 4 -13 2 -13 -3 0 -6 4 -11 10 -11 5 0 9
-3 9 -7 -5 -31 3 -93 11 -88 6 3 7 -1 4 -10 -4 -8 -2 -21 2 -28 5 -6 9 -25 9
-42 0 -16 4 -33 9 -37 5 -3 9 -20 8 -37 0 -17 4 -31 9 -31 5 0 9 -9 9 -19 0
-11 6 -22 13 -24 9 -4 9 -6 -1 -6 -10 -1 -10 -5 2 -17 12 -12 13 -20 6 -35 -8
-15 -8 -19 2 -17 8 2 13 -6 12 -20 0 -13 4 -21 11 -18 7 2 11 -5 10 -17 -2
-22 23 -79 38 -85 4 -2 7 -13 7 -23 0 -13 4 -18 12 -13 7 5 9 2 5 -9 -3 -9 1
-18 10 -21 8 -4 13 -13 9 -21 -3 -9 0 -15 9 -15 8 0 15 -5 15 -11 0 -5 -5 -7
-11 -3 -8 4 -8 0 0 -15 7 -11 17 -21 24 -21 8 0 8 -3 -2 -9 -11 -7 -9 -10 8
-16 12 -3 19 -10 16 -15 -7 -11 24 -42 35 -35 5 3 7 -4 5 -15 -2 -12 1 -20 9
-20 7 0 19 -12 27 -27 8 -16 22 -37 31 -47 10 -11 18 -24 18 -28 0 -10 14 -28
45 -59 l20 -20 -20 7 c-15 5 -14 2 5 -12 38 -27 50 -41 43 -48 -4 -3 1 -6 11
-6 9 0 14 -4 11 -10 -3 -5 -1 -10 5 -10 6 0 8 -5 4 -12 -5 -9 -2 -8 9 1 15 12
17 12 12 -1 -4 -9 6 -24 24 -39 17 -13 31 -30 31 -37 0 -7 4 -11 9 -7 5 3 16
-1 24 -9 8 -8 17 -12 21 -9 3 4 6 -1 6 -11 0 -9 5 -14 10 -11 6 3 10 1 10 -5
0 -7 7 -9 16 -6 8 3 13 2 10 -3 -3 -4 2 -17 10 -27 9 -10 13 -12 9 -4 -4 10
-2 9 8 -2 8 -10 18 -14 23 -10 4 4 2 -2 -6 -12 -10 -13 -10 -17 -2 -12 7 4 12
1 12 -9 0 -10 5 -13 12 -9 8 5 9 2 5 -9 -4 -11 -1 -17 8 -17 8 0 15 -7 15 -16
0 -8 7 -22 16 -31 8 -9 13 -22 10 -30 -3 -8 -2 -12 3 -9 4 3 19 -7 32 -22 20
-22 20 -24 3 -12 -11 8 -7 3 8 -11 15 -14 28 -31 28 -37 0 -7 5 -12 10 -12 6
0 10 -7 10 -15 0 -8 3 -15 8 -15 4 0 13 -15 20 -32 27 -66 36 -78 56 -78 14 0
17 -3 9 -8 -10 -6 -9 -13 3 -30 8 -12 20 -20 25 -17 5 3 6 -2 2 -11 -4 -12 -3
-15 5 -10 7 4 12 1 12 -9 0 -9 5 -13 10 -10 6 3 10 -3 10 -15 0 -12 4 -19 9
-16 11 7 23 -22 14 -37 -4 -6 0 -8 11 -4 12 5 22 -2 35 -23 10 -17 21 -27 24
-23 4 3 7 -2 7 -13 0 -16 2 -17 10 -4 8 12 10 10 10 -8 0 -13 4 -20 10 -17 6
3 10 0 10 -8 0 -8 7 -18 16 -21 10 -4 14 -12 10 -22 -6 -15 -4 -15 10 -3 16
13 16 12 6 -7 -10 -19 -9 -21 14 -18 21 2 23 0 13 -12 -9 -11 -8 -14 8 -14 10
0 28 -7 39 -16 18 -14 18 -15 -4 -4 -13 7 -26 9 -29 7 -2 -3 11 -11 31 -18 20
-7 32 -17 29 -23 -4 -6 2 -4 12 4 11 9 16 10 11 3 -4 -8 -2 -13 4 -13 6 0 8
-4 5 -10 -5 -9 15 -15 38 -11 4 0 7 -3 7 -9 0 -5 7 -10 15 -10 9 0 18 -7 21
-15 4 -8 10 -13 14 -10 5 3 11 1 15 -5 4 -6 11 -7 17 -4 6 4 17 -1 25 -11 12
-17 13 -17 13 -2 0 9 4 17 10 17 5 0 7 -7 4 -15 -4 -9 0 -15 10 -15 9 0 16 6
16 13 0 6 5 4 11 -6 6 -10 8 -26 5 -35 -4 -12 -1 -11 12 4 18 22 19 22 31 2 7
-11 19 -17 26 -14 8 3 14 2 14 -2 -1 -4 -1 -16 0 -27 1 -17 3 -18 11 -5 8 13
10 12 10 -4 0 -15 3 -16 14 -7 10 8 16 9 21 1 3 -6 11 -7 17 -4 7 4 8 2 4 -5
-6 -9 -11 -9 -22 0 -10 8 -14 8 -14 0 0 -6 6 -11 13 -12 6 -1 19 -2 27 -3 8
-2 23 -3 33 -4 11 -1 15 -7 11 -13 -4 -8 1 -9 16 -4 15 5 20 3 16 -3 -3 -6 -1
-14 5 -18 7 -4 9 -3 5 4 -3 6 -2 13 4 17 6 3 10 -4 10 -16 l0 -22 20 23 c11
13 20 18 20 11 0 -7 5 -9 12 -5 7 4 8 3 4 -5 -4 -6 -11 -9 -16 -6 -5 3 -11 2
-14 -3 -2 -4 8 -8 23 -7 21 0 27 4 23 15 -4 11 -2 12 7 4 13 -12 54 -7 46 5
-2 4 2 8 10 8 18 0 19 -9 3 -27 -11 -12 -10 -12 2 -3 19 13 92 25 85 13 -3 -5
0 -12 6 -16 7 -4 9 -3 6 3 -9 14 53 26 68 13 8 -6 15 -6 23 2 7 7 12 8 12 4 0
-5 7 -3 15 4 12 10 18 10 29 1 11 -9 16 -9 22 0 4 7 3 9 -3 6 -6 -4 -13 0 -16
8 -5 11 -1 12 20 4 22 -8 24 -7 14 4 -9 12 -7 13 13 10 13 -3 27 1 31 8 5 7 4
10 -3 5 -6 -3 -13 -2 -16 3 -7 11 13 9 33 -3 11 -7 13 -5 8 7 -3 10 -2 17 3
17 6 0 10 -6 10 -12 0 -9 2 -10 8 -2 4 6 17 14 30 18 12 4 20 12 17 17 -4 5
-2 9 4 9 6 0 36 26 68 57 32 31 52 53 46 49 -9 -5 -11 -2 -7 8 3 9 9 15 12 14
20 -2 32 3 27 12 -3 5 -2 10 3 10 9 0 19 23 28 64 3 11 9 25 14 31 5 6 7 24 4
39 -3 21 -1 26 8 20 7 -4 4 3 -6 15 -19 21 -19 21 -1 15 14 -6 16 -4 10 7 -5
7 -8 37 -7 66 1 36 -3 53 -11 53 -7 0 -4 5 7 11 15 9 16 13 5 20 -12 7 -12 9
0 9 11 0 11 3 1 15 -9 11 -9 15 -1 15 7 0 9 5 6 10 -4 6 -1 18 7 27 8 10 8 14
1 10 -6 -4 -14 -3 -18 3 -3 5 -2 10 4 10 5 0 8 9 6 20 -2 11 0 20 5 20 9 0 6
32 -5 49 -3 5 -1 12 5 16 5 3 10 17 10 31 0 15 -4 23 -11 19 -6 -4 -5 3 3 14
11 18 11 23 -2 31 -12 8 -12 10 5 10 17 0 17 2 5 10 -11 7 -11 10 -2 10 7 0
10 5 7 10 -3 6 0 10 7 10 10 0 9 3 -2 10 -12 8 -12 10 4 16 14 5 15 9 4 15
-11 7 -11 9 1 9 7 0 11 6 8 15 -4 8 -2 17 4 21 6 4 6 11 -2 20 -6 8 -8 14 -3
14 5 0 2 5 -6 10 -13 9 -13 10 0 10 12 1 11 3 -3 11 -9 6 -15 15 -12 20 4 5 8
21 11 35 3 19 1 24 -8 18 -10 -5 -10 -4 -1 6 6 7 9 19 6 26 -3 8 1 14 8 14 10
0 10 3 2 11 -6 6 -9 21 -5 33 9 28 8 58 -2 75 -6 9 -5 12 1 8 6 -4 9 13 7 43
-1 32 2 50 10 50 6 0 5 4 -3 9 -12 8 -12 12 -2 24 9 12 9 16 -1 20 -10 4 -10
6 0 6 6 1 12 6 12 12 0 6 -7 8 -17 4 -15 -5 -16 -4 -5 6 14 15 16 33 3 25 -5
-4 -7 4 -3 16 4 15 2 19 -7 13 -10 -6 -11 -3 -2 14 7 13 8 21 2 21 -6 0 -7 7
-4 17 4 10 2 14 -5 9 -6 -3 -13 -2 -17 4 -3 5 -1 10 4 10 6 0 11 7 11 15 0 8
-6 15 -12 15 -9 0 -10 3 -2 8 6 4 11 26 10 50 -1 23 1 42 4 42 4 0 4 57 0 70
-1 3 -2 18 -2 33 -1 21 -4 27 -16 22 -13 -5 -13 -2 2 14 13 14 14 21 5 27 -8
5 -10 3 -4 -7 5 -8 4 -11 0 -6 -12 11 -14 47 -2 47 5 0 4 7 -3 15 -10 12 -10
15 1 15 11 0 11 2 -1 10 -12 8 -13 11 -1 19 8 5 9 11 3 15 -6 3 -8 16 -4 28 4
16 2 19 -9 13 -11 -7 -12 -6 -2 6 13 16 12 36 -1 58 -6 10 -5 12 2 7 8 -5 12
0 12 13 0 12 -6 21 -12 21 -9 0 -8 4 2 10 12 8 12 10 1 10 -10 0 -11 3 -2 14
8 10 9 16 1 21 -5 3 -10 12 -10 18 0 7 4 6 11 -3 10 -15 8 9 -5 68 -3 13 -1
20 4 17 6 -3 9 5 8 19 -1 15 -7 26 -12 26 -6 0 -5 5 2 12 16 16 15 31 0 22
-10 -6 -10 -4 0 8 10 13 10 17 0 21 -10 4 -10 6 0 6 6 1 12 6 12 12 0 5 -4 8
-8 5 -13 -8 -8 30 6 47 7 7 9 17 6 20 -10 9 -10 107 -1 107 5 0 5 5 1 11 -9
15 -11 99 -2 93 3 -2 9 0 13 6 3 5 1 10 -6 10 -7 0 -9 3 -6 6 3 4 1 16 -5 28
-10 18 -9 19 4 9 12 -10 14 -10 13 5 0 9 -4 23 -8 29 -4 6 -3 14 3 18 6 4 4
15 -6 30 -13 20 -13 25 -1 36 12 11 11 16 -5 33 -16 18 -17 22 -4 31 9 7 11
16 7 24 -5 7 -6 22 -3 33 3 11 -1 24 -9 29 -10 6 -10 9 -1 9 7 0 12 13 12 31
0 21 -4 28 -12 23 -10 -6 -10 -5 -1 7 15 19 14 199 -1 199 -6 0 -3 7 7 14 10
8 14 17 9 20 -5 3 -8 15 -7 28 1 13 -3 29 -9 37 -8 11 -8 13 2 7 7 -4 12 -1
12 9 0 10 -5 13 -12 9 -9 -5 -9 -2 1 9 9 12 10 17 2 17 -7 0 -9 5 -6 10 14 22
15 60 3 60 -8 0 -9 3 -3 8 12 9 20 46 8 39 -5 -3 -9 3 -9 14 0 13 5 18 16 14
11 -5 12 -3 3 6 -6 6 -9 18 -6 25 3 8 0 14 -6 14 -6 0 -11 5 -11 11 0 5 4 8 8
5 4 -2 8 4 8 15 0 10 -4 19 -8 19 -4 0 -5 7 -2 15 4 8 10 12 15 9 5 -3 6 2 3
10 -3 9 -10 16 -15 16 -5 0 -4 12 2 27 7 20 7 29 -1 31 -7 3 -7 9 2 20 11 13
11 14 -2 7 -13 -8 -13 -7 -1 8 9 12 10 17 2 17 -7 0 -9 5 -4 13 4 6 6 20 4 31
-2 12 2 16 11 11 7 -3 5 0 -5 8 -14 11 -15 16 -5 20 10 4 10 6 0 6 -10 1 -10
6 -2 21 8 15 8 20 -2 20 -9 0 -9 3 0 12 15 15 16 31 0 22 -7 -5 -8 -3 -3 6 14
23 16 92 2 83 -7 -4 -7 -1 1 10 9 10 12 31 9 56 -2 22 1 45 7 52 8 9 8 10 0 6
-7 -4 -15 0 -18 9 -3 8 -2 12 4 9 6 -3 10 1 10 10 0 10 -5 13 -12 9 -7 -4 -4
3 7 16 l20 23 -20 -6 c-17 -6 -18 -5 -5 5 16 13 19 65 6 86 -4 7 -4 12 1 12
11 0 9 142 -2 159 -5 9 -4 12 3 7 6 -3 13 -2 17 4 3 5 2 10 -3 10 -5 0 -9 11
-9 25 0 13 3 23 7 20 12 -7 7 29 -5 37 -6 5 -4 8 5 8 13 0 13 1 0 10 -12 8
-12 10 -1 10 11 0 11 3 1 15 -10 12 -10 15 0 15 10 0 10 3 1 14 -9 11 -9 15 1
19 10 4 10 8 -2 16 -8 6 -10 11 -4 11 8 0 11 17 10 45 -1 25 3 47 9 49 6 3 5
5 -2 5 -8 1 -9 10 -3 31 5 17 6 30 3 30 -3 0 1 8 8 17 8 9 9 14 3 10 -8 -4
-11 2 -10 17 1 20 4 22 15 13 12 -9 13 -9 7 1 -11 18 -13 122 -3 122 5 0 5 5
1 12 -5 7 -7 30 -5 51 1 21 -3 45 -11 54 -8 10 -8 14 -1 10 6 -4 14 -3 18 3 3
5 1 10 -5 10 -6 0 -8 5 -5 10 3 6 1 10 -6 10 -8 0 -8 4 1 15 9 11 9 15 1 15
-9 0 -9 5 -1 20 6 11 7 20 3 20 -5 0 -9 25 -8 56 0 31 -3 57 -6 59 -3 2 -4 18
-3 34 1 17 -2 34 -7 37 -6 3 -5 11 2 20 9 11 8 14 -2 14 -11 0 -11 2 1 10 12
8 12 10 1 10 -11 0 -11 3 0 17 8 9 9 14 3 10 -7 -4 -11 5 -11 23 0 17 5 27 10
23 6 -4 7 -1 1 8 -14 24 -16 51 -2 43 10 -6 10 -4 0 8 -9 11 -10 18 -2 23 6 3
7 12 3 18 -12 19 -12 36 -2 43 6 3 5 11 -2 20 -9 11 -9 14 0 14 8 0 9 5 2 18
-7 13 -6 23 1 30 9 9 9 12 -1 12 -7 0 -9 5 -5 12 10 15 13 48 4 43 -3 -2 -6 5
-6 15 0 10 5 16 10 13 5 -4 7 1 3 9 -3 9 0 21 6 28 9 9 9 11 1 7 -7 -4 -15 0
-18 9 -3 8 -2 12 4 9 6 -4 8 6 6 24 -2 17 -1 31 3 31 3 0 5 65 5 145 -1 119
-4 149 -18 164 -9 10 -13 21 -9 24 3 4 -2 7 -12 7 -10 0 -15 3 -12 6 4 4 -6
18 -21 32 -15 13 -21 21 -14 18 17 -10 15 -3 -7 23 -11 13 -17 29 -14 37 4 10
-2 17 -16 21 -13 3 -21 14 -22 27 0 11 -3 15 -6 9 -6 -16 -33 8 -33 29 0 10
-3 9 -10 -2 -8 -13 -10 -12 -10 4 0 16 -2 17 -17 5 -11 -10 -14 -10 -9 -1 7
12 -4 16 -33 13 -7 -2 -10 2 -6 8 3 7 0 8 -9 5 -10 -4 -16 -1 -16 7 0 12 -2
12 -9 0 -11 -17 -25 4 -15 22 5 8 2 8 -9 -2 -15 -12 -17 -11 -17 5 0 14 -3 15
-12 6 -14 -14 -32 -16 -24 -3 3 5 -3 11 -14 14 -11 3 -18 1 -14 -4 3 -5 0 -9
-5 -9 -6 0 -11 4 -11 10 0 5 -7 7 -15 4 -9 -4 -15 0 -15 7 0 11 -3 11 -10 -1
-5 -8 -10 -10 -10 -5 0 15 -40 16 -40 2 0 -8 -4 -7 -9 2 -8 13 -12 13 -27 0
-10 -8 -15 -9 -11 -3 4 7 0 15 -9 18 -8 3 -13 2 -10 -3z m-1094 -6111 c0 -5
-2 -10 -4 -10 -3 0 -8 5 -11 10 -3 6 -1 10 4 10 6 0 11 -4 11 -10z m520 -500
c8 -5 11 -10 5 -10 -5 0 -17 5 -25 10 -8 5 -10 10 -5 10 6 0 17 -5 25 -10z
m715 -170 c3 -6 -1 -7 -9 -4 -18 7 -21 14 -7 14 6 0 13 -4 16 -10z"/>
<path d="M5327 1096 c-4 -10 -3 -15 3 -11 6 3 10 1 10 -6 0 -7 3 -10 6 -6 3 3
2 13 -4 22 -8 16 -9 16 -15 1z"/>
<path d="M4803 407 c-18 -12 -32 -25 -33 -30 0 -4 10 -1 23 8 13 8 27 13 30
10 4 -3 5 -2 2 2 -3 3 0 12 6 20 15 17 11 16 -28 -10z"/>
<path d="M2350 183 c0 -9 40 -36 45 -31 2 2 -8 11 -21 21 -13 10 -24 14 -24
10z"/>
<path d="M4190 79 c0 -5 5 -7 10 -4 6 3 10 8 10 11 0 2 -4 4 -10 4 -5 0 -10
-5 -10 -11z"/>
<path d="M3956 71 c-4 -5 -2 -12 3 -15 5 -4 12 -2 15 3 4 5 2 12 -3 15 -5 4
-12 2 -15 -3z"/>
<path d="M3995 69 c-4 -5 -4 -13 -1 -16 3 -4 6 0 6 8 0 11 2 11 10 -1 6 -9 10
-10 10 -3 0 17 -17 25 -25 12z"/>
</g>
</svg>
